<svg width="226" height="88" viewBox="0 0 226 88" fill="none" xmlns="http://www.w3.org/2000/svg"><g clip-path="url(#clip0)"><path d="M22.944 74.676c1.339 1.374 2.876 2.535 4.365 3.804h5.112v9.51h-1.74v-3.66l-3.832-3.757h-8.39l-3.74 3.67v3.752H.062V28.081H12.27c.14.69.237 1.427.431 2.097.184.607.435 1.192.747 1.745.428.808.961 1.558 1.586 2.23l1.174-1.16c-.238-.337-.485-.67-.718-1.017a8.263 8.263 0 01-.626-1.051 5.826 5.826 0 01-.412-1.07 5.96 5.96 0 01-.33-1.16c0-.428-.17-.828-.155-1.25.008-.42.04-.84.097-1.256.063-.409.165-.804.252-1.203a9.03 9.03 0 01.379-1.09c.133-.376.307-.738.519-1.079a9.18 9.18 0 01.679-1.022c.26-.3.542-.581.843-.841.283-.263.579-.51.888-.742.312-.209.636-.4.97-.57.325-.177.66-.338 1-.476a6.39 6.39 0 011.07-.31 6.201 6.201 0 011.121-.209c.36 0 .718-.104 1.087-.123.368-.02.761.157 1.15.138.374.038.743.118 1.1.237.358.095.71.21 1.052.348.35.124.691.269 1.024.432.343.187.668.405.97.652l1.11-1.26a9.588 9.588 0 00-1.74-1.085 11.857 11.857 0 00-2.372-.827 11.619 11.619 0 00-3.507-.214 9.24 9.24 0 00-1.979.4c-.786.23-1.54.56-2.24.979a10.463 10.463 0 00-4.409 5.055c-.184.436-.338.884-.46 1.34-.06.27-.106.544-.136.818-.044.248-.102.476-.16.77H.09C0 25.81-.039 7.508.053 5.5h10.185l9.476 9.286h4.807l1.125 1.108h2.541c-.155-.147-.267-.252-.368-.361-.626-.652-1.261-1.303-1.877-1.969a1.517 1.517 0 00-.558-.404 1.546 1.546 0 00-.684-.119c-1.455.029-2.91 0-4.33 0L12.671 5.51h2.479l6.305 6.182h5.005l3.075 3.014c.426-.361.814-.789 1.212-1.16l-3.783-3.709h-4.889L17.668 5.52h7.216l-2.255 2.21c.204.2.388.386.577.567l.602.594c.664-.566 1.236-1.198 1.862-1.778h6.698c.106.523.145 13.49.048 15.791-.276-.475-.485-.95-.766-1.35-.281-.4-.664-.856-.97-1.26l-1.203 1.184c.62.77 1.137 1.616 1.538 2.515.377.944.6 1.94.66 2.953a8.598 8.598 0 01-.486 3.024 8.145 8.145 0 01-1.455 2.64 6.737 6.737 0 01-1.717 1.592c-.604.425-1.255.782-1.94 1.065-.485.172-1.731.428-2.182.528a5.869 5.869 0 01-2.304 0 13.084 13.084 0 01-2.158-.613c-.727-.252-1.285-.747-1.998-1.051-.35.404-.698.799-1.086 1.24.383.258.76.543 1.168.767a8.53 8.53 0 002.14.95c.484.115 1.003.233 1.508.338.761.082 1.527.117 2.294.105a5.926 5.926 0 001.086-.12c.344-.032.655-.18.97-.223a8.04 8.04 0 002.425-.95 8.279 8.279 0 001.717-1.18c.393-.347.756-.723 1.12-1.098.15-.157.272-.343.407-.514a.064.064 0 01.044 0s.034.029.034.043v10.057a.943.943 0 01-.034.176l-5.33-5.083h-2.105c.063.114.097.195.146.27a.518.518 0 00.087.091l8.41 8.398v6.956H30.83a2.974 2.974 0 00-1.428-1.548 3.066 3.066 0 00-2.117-.235c-1.63.475-2.454 1.583-2.308 3.395.07.519.277 1.01.6 1.427.418.599 1.107.822 1.752 1.093 1.314.12 2.886-.204 3.501-1.85h1.581v20.319c-.76.057-1.556 0-2.347 0h-2.376c-.204-.2-.417-.428-.645-.632-.306-.276-.621-.533-.932-.795a9.593 9.593 0 00-.877-.76 4.877 4.877 0 01-.767-.785 2.373 2.373 0 00-.116-.894c-.112-.242.097-.566-.14-.813v-.124c-.044-.518-.078-1.041-.132-1.56 0-.17-.087-.337-.121-.508-.034-.171.078-.371-.116-.514-.034-.023 0-.118 0-.18-.04-.476-.068-.951-.131-1.427a3.663 3.663 0 01-.131-.632.934.934 0 00-.068-.59c-.102-.171 0-.475-.058-.656-.131-.314 0-.666-.141-.951-.14-.285 0-.604-.111-.885-.112-.28-.049-.651-.141-.95-.092-.3 0-.623-.121-.88-.122-.257 0-.623-.127-.88a3.15 3.15 0 01-.111-.89 15.246 15.246 0 01-.267-1.82c0-.181-.116-.362-.116-.566.034-.2.012-.406-.063-.595a1.811 1.811 0 01-.058-.594c-.03-.214-.093-.423-.122-.632-.029-.21 0-.39-.116-.58-.073-.096 0-.281 0-.476.3-.252.645-.504.97-.799 1.62-1.569 3.22-3.162 4.85-4.755.664-.642 1.377-1.246 2.017-1.816l-1.353-1.327-8.385 8.226c.068.476.145.999.228 1.522.034.233.092.475.12.694.009.236.044.471.108.7.106.284.043.617.13.95.083.432.133.869.15 1.308 0 .209.083.418.122.632.039.214-.078.404.121.575.044.034 0 .157 0 .238-.01.26.03.518.122.761.017.256.054.51.111.76.112.277.044.62.131.952.083.436.132.878.146 1.322.024.214.092.418.12.632.02.195.056.387.108.576.097.29.043.618.13.95.083.432.133.87.15 1.308 0 .214.083.419.122.633.039.214-.092.413.126.57v.12c-.006.298.031.596.112.884.077.261.048.542.126.817a9 9 0 01.145 1.313c.025.21.097.418.122.628.024.209-.03.437.12.637.06.033.015.17.015.28zm6.368-47.403a10.456 10.456 0 00-.189-1.602c-.079-.33-.2-.65-.359-.951a6.832 6.832 0 00-.698-1.199 6.92 6.92 0 00-2.726-2.068 8.17 8.17 0 00-.97-.3 5.6 5.6 0 00-.892-.123h-1.014a4.445 4.445 0 00-1.537.261 5.39 5.39 0 00-2.425 1.427c-.17.185-.354.356-.538.527a5.402 5.402 0 00-1.101 1.788 4.078 4.078 0 00-.374 1.47 7.326 7.326 0 00.107 2.02c.192.787.495 1.542.902 2.245.33.418.691.81 1.081 1.174a5.22 5.22 0 001.795 1.142c.513.247 1.07.397 1.64.442.7.077 1.407.05 2.1-.08a7.454 7.454 0 002.39-.952c.474-.361.917-.76 1.324-1.193.241-.237.44-.512.587-.813.596-.97.907-2.083.897-3.215zm-16.087 24.95c.034.361.058.656.097.95.098.37.14.751.126 1.133.209.2.121.475.121.69 0 .213.19.432.141.693-.082.443.218.866.116 1.313.204.252.049.566.146.813.087.287.125.585.112.884 0 .062-.03.152 0 .181.165.171.101.38.126.575.024.195.092.419.116.633.053.475.087.95.131 1.426v.124c.213.157.082.38.121.57.05.189.09.379.122.571.02.478.07.954.15 1.427.019.335.063.669.13.998.081.37.124.748.127 1.127l-4.85-3.999a2.19 2.19 0 01-.121-.295c-.2-.765-.485-1.502-.665-2.277-.087-.41-.276-.794-.373-1.218-.097-.423-.291-.827-.388-1.264-.097-.438-.277-.8-.374-1.218a10.884 10.884 0 00-.392-1.265c-.291-.794-.461-1.626-.791-2.415l-1.557.665c-.032.178-.032.36 0 .538.276.668.512 1.35.708 2.044.25.628.444 1.275.577 1.936.539 1.236.85 2.548 1.334 3.804.209.537.325 1.113.485 1.716.126.063.245.14.354.229.485.447 1.024.803 1.499 1.231.79.709 1.64 1.336 2.425 2.016.786.68 1.498 1.237 2.26 1.84.761.605 1.334 1.137 2.008 1.703.048.043.13.043.247.071a3.893 3.893 0 01-.136-.475 2.8 2.8 0 00-.111-.885c-.117-.257 0-.58-.126-.88-.093-.185.067-.503-.04-.66-.169-.248-.057-.476-.106-.709a5.597 5.597 0 01-.121-.632 51.81 51.81 0 01-.131-1.498v-.124a.66.66 0 01-.112-.632c.034-.257-.126-.476-.14-.694.027-.2.01-.402-.049-.595a1.065 1.065 0 01-.068-.594c0-.205-.106-.39-.116-.57-.034-.719-.17-1.427-.267-2.131-.068-.476-.087-.999-.13-1.498v-.123a.652.652 0 01-.117-.633c.043-.262-.131-.452-.14-.694 0-.476-.083-.951-.122-1.427V54.6c-.228-.294 0-.66-.131-.95a2.765 2.765 0 01-.111-.914l6.057-5.844c.606-.58 1.198-1.17 1.794-1.754.102-.105.19-.252.316-.3.373-.138.562-.475.834-.713.271-.238.533-.514.752-.727l-1.373-1.351-10.374 10.176zm5.422 1.593a173.85 173.85 0 011.523-1.393c2.25-2.135 4.409-4.36 6.717-6.439.096-.096.183-.2.262-.309l-1.329-1.298-8.977 8.806c.006.32.044.639.112.951.097.328-.04.666.15.994.19.328-.039.614.116.951.156.338.025.661.141.994.117.333 0 .575.117.885.116.309 0 .618.135.95.136.333 0 .619.117.951.066.314.11.632.13.951.084.517.132 1.038.146 1.56v.12c.199.251.049.565.14.812.088.287.125.586.112.885 0 .061-.029.152 0 .185.17.166.102.376.127.57.024.196.092.42.12.633-.004.3.032.599.107.89.107.28.044.617.131.95.088.333.059.661.127 1.004.116.594.135 1.212.257 1.816.075.472.122.949.14 1.427 0 .061-.029.152 0 .18.233.228.039.523.131.756.091.243.131.502.116.761.013.399.065.795.156 1.184.056.554.141 1.105.257 1.65l2.328 2.259h2.376l-2.425-2.378a1.26 1.26 0 00-.34-.237 2.048 2.048 0 01-.722-1.056 1.493 1.493 0 01-.107-.76c.049-.296-.12-.543-.135-.819-.034-.542-.083-1.084-.127-1.621v-.124c-.218-.18-.145-.428-.111-.632.034-.205-.136-.452-.146-.695-.024-.542-.082-1.084-.12-1.621v-.18c-.21-.21-.069-.476-.108-.7-.038-.223-.101-.504-.126-.756a7.08 7.08 0 00-.155-1.555c-.165-.475-.044-.95-.199-1.464a7.102 7.102 0 01-.155-1.617v-.238c-.204-.214-.063-.475-.107-.704-.043-.228-.096-.499-.12-.75-.054-.524-.088-1.042-.132-1.565v-.062c-.223-.176-.145-.423-.116-.628.029-.204-.14-.475-.14-.694a3.015 3.015 0 00-.127-1.017c-.111-.305.044-.68-.15-.994.102-.585-.194-1.151-.117-1.77zm-9.995-2.668a4.12 4.12 0 001.91-.323 4.826 4.826 0 002.285-1.902c.456-.637.71-1.39.732-2.169v-.95a5.859 5.859 0 00-.126-.875 4.552 4.552 0 00-.218-.533 4.68 4.68 0 00-1.94-2.24 4.091 4.091 0 00-2.231-.699h-.878a4.181 4.181 0 00-1.499.352 4.89 4.89 0 00-1.712 1.184 4.249 4.249 0 00-1.246 2.468 5.545 5.545 0 00.082 1.992 4.68 4.68 0 001.897 2.801c.831.65 1.883.97 2.944.894zM5.359 32.737a9990.95 9990.95 0 018.278 8.116h8.851s.035 0 .049-.033c.015-.033 0-.028 0-.047l-2.076-2.036h-6.305l-6.94-6.823v-1.84H5.359v2.663zm8.341-19.81l-8.322 8.16v3.238h1.867V22l7.353-7.209h2.556l.053-.024a.247.247 0 00.039-.052 17.18 17.18 0 00-1.984-1.788H13.7zm17.863 58.91a2.71 2.71 0 00-.2-1.118 2.755 2.755 0 00-.644-.945 2.938 2.938 0 00-2.032-.88 3.106 3.106 0 00-1.273.179 3.06 3.06 0 00-1.084.677 2.827 2.827 0 00-.859 1.945c-.039.425.018.853.166 1.254a2.967 2.967 0 002.734 1.923c.423.027.847-.033 1.244-.178a3.011 3.011 0 001.747-1.664c.153-.379.222-.785.2-1.192zm-13.832.685c-.442-.385-.864-.808-1.344-1.155-.305-.214-.538-.509-.844-.7-.436-.27-.766-.65-1.178-.95-.412-.3-.747-.704-1.169-.99-.703-.475-1.285-1.098-1.974-1.592-.398-.286-.742-.642-1.12-.951a3.622 3.622 0 00-.485-.286c.281.894.538 1.717.824 2.635.461.37 1 .794 1.528 1.236.64.533 1.256 1.099 1.94 1.607.296.224.543.5.839.704.674.475 1.246 1.022 1.892 1.507.485.347.887.752 1.406 1.194-.102-.785-.184-1.488-.315-2.259z" fill="#fff"/><path d="M17.875 86.421V88H16.39v-3.367l2.735-2.686h7.115l2.764 2.715v3.328h-1.363v-1.578l-9.767.01zM29.524 56.184c-.043.043-.106.076-.13.133-.228.537-.786.6-1.242.78-.17.066-.427-.053-.635-.11-.437-.128-.893-.409-.97-.775-.078-.366-.374-.637-.097-1.008.087-.114.038-.314.106-.475a1.69 1.69 0 01.586-.598 1.73 1.73 0 01.806-.249c.38-.01.75.116 1.043.352.273.214.463.512.538.847a.783.783 0 010 .77c-.043.1-.005.252-.005.333zM22.886 30.055c-1.64-.133-2.808-1.103-2.822-2.772a2.577 2.577 0 01.164-1.077c.13-.344.333-.657.595-.92a2.723 2.723 0 012.02-.786c.379-.023.759.032 1.115.162s.68.333.95.595c.27.262.48.577.618.925.137.347.198.719.178 1.091 0 1.645-1.16 2.64-2.818 2.782zM11.553 46.346a3.175 3.175 0 01-.97 2.006 2.784 2.784 0 01-.917.6 2.827 2.827 0 01-1.082.204 3.03 3.03 0 01-1.138-.234 2.98 2.98 0 01-.96-.643 2.915 2.915 0 01-.636-.955 2.87 2.87 0 01-.214-1.121 2.52 2.52 0 01.256-1.178c.18-.367.446-.687.777-.933.257-.243.561-.434.894-.561a2.76 2.76 0 011.046-.181c.79.03 1.538.358 2.087.916a2.97 2.97 0 01.857 2.08zM28.614 70.23c.391.15.762.345 1.106.58a1.492 1.492 0 01.417 1.118c-.009.252-.08.499-.208.718-.238.414-.272.437-.568.561a2.17 2.17 0 01-.887.266 2.603 2.603 0 01-1.038-.361 1.173 1.173 0 01-.437-.556 1.403 1.403 0 01-.126-.747c.015-.41.188-.8.485-1.089.38-.246.808-.413 1.256-.49z" fill="#fff"/><path d="M203.137 14.51a5.376 5.376 0 011.62 2.35l12.518 31.583c.161.388.247.802.252 1.222-.007.331-.057.66-.15.98a3.601 3.601 0 01-.485 1.05c-.25.357-.582.65-.97.856a3.14 3.14 0 01-1.523.342c-.699 0-1.38-.222-1.94-.632a3.593 3.593 0 01-1.295-1.664l-3.293-9.292H193.51l-3.196 9.781a2.387 2.387 0 01-1.096 1.341 3.5 3.5 0 01-4.064-.413c-.31-.27-.557-.6-.724-.971a2.756 2.756 0 01-.246-1.179 2.823 2.823 0 01.15-.95l11.868-32.074a5.42 5.42 0 011.62-2.349 4.47 4.47 0 012.667-.88c.964 0 1.9.31 2.668.88l-.02.02zm-8.002 21.622h10.874l-5.738-16.096-5.136 16.096zM226.302 50.007a2.784 2.784 0 01-.844 2.03 2.98 2.98 0 01-1.508.784c-.57.11-1.16.054-1.698-.163a2.948 2.948 0 01-1.324-1.055 2.859 2.859 0 01-.509-1.596v-32.81a2.685 2.685 0 01.215-1.117c.15-.354.374-.673.658-.937a2.924 2.924 0 011.507-.82 2.963 2.963 0 011.716.162c.543.222 1.004.6 1.323 1.084.318.484.48 1.052.464 1.628v32.81zM35.209 54.282h-1.504v-3.41c0-.142.233-.304.388-.408.917-.614 1.877-1.175 2.76-1.836a7.245 7.245 0 002.43-3.462c3.957 1.998 8.152 2.378 12.551 1.902-.97 10.552-1.94 21.023-2.91 31.55-.902 0-1.765-.057-2.614 0a9.717 9.717 0 00-3.617.937 9.545 9.545 0 00-2.974 2.225c-.446.476-.752 1.094-1.154 1.617a.823.823 0 01-.529.314c-1.411.024-2.827 0-4.282 0V56.578h1.61v5.426c-.015.31.036.62.149.91.113.289.286.553.509.773.222.221.489.394.783.509.294.114.61.168.925.157h2.974s.029.029.096.09v4.28c0 .21-.3.475-.518.609-.481.308-.86.747-1.091 1.263a2.848 2.848 0 00-.21 1.642c.075.58.33 1.124.73 1.558.4.433.925.736 1.507.867.7.183 1.443.111 2.092-.203a2.954 2.954 0 001.438-1.504c.296-.638.342-1.36.13-2.03a2.863 2.863 0 00-1.284-1.598c-.21-.1-.383-.265-.492-.469a1.061 1.061 0 01-.114-.663c.034-1.26 0-2.515 0-3.842.97 0 1.91-.062 2.847 0 1.595.133 3.05-.951 2.978-2.948-.097-2.558-.068-5.13 0-7.694a2.653 2.653 0 00-.804-1.769 2.757 2.757 0 00-1.81-.775c-2.721.062-5.442 0-8.163 0-1.76 0-2.77.99-2.789 2.72-.019.133-.029.233-.038.395zM33.611 16.346V5.409c1.072.148 2.134.252 3.172.442 2.425.443 4.806 1.009 7.231 1.365a5.897 5.897 0 002.644-.366c2.425-.846 4.078-2.558 5.335-4.688.402-.676.81-1.35 1.29-2.145v11.155c-3.55-.75-7.1-1.04-10.636-.119a18.79 18.79 0 00-8.924 5.436l-.112-.143zM51.178 73.72a24097.39 24097.39 0 003.278-21.397c1.058.913 2.12 1.678 3.449 1.902 1.3.227 2.641.008 3.797-.618-.078 4.479-6.926 17.593-10.524 20.114z" fill="#7FBB42"/><path d="M41.74 63.278c-1.688-1.745-3.352-3.447-4.996-5.168a3.044 3.044 0 01-.618-1.057 3.002 3.002 0 01.196-2.38c.194-.364.46-.685.783-.946a3.18 3.18 0 013.517-.298c.365.203.684.475.938.8.112.148.214.31.374.538.136-.19.242-.352.363-.509a3.1 3.1 0 01.956-.83 3.162 3.162 0 012.484-.26c.41.126.789.334 1.113.612.324.277.586.617.77.998a3.007 3.007 0 01-.637 3.489 754.894 754.894 0 01-5.243 5.011zM54.721 48.143a4.175 4.175 0 01.336-1.676c.226-.53.56-1.01.981-1.41a4.34 4.34 0 011.47-.918 4.409 4.409 0 011.719-.276 4.494 4.494 0 012.45.772 4.362 4.362 0 011.599 1.976c.322.8.395 1.674.21 2.514a4.325 4.325 0 01-1.248 2.206c-.63.597-1.426.999-2.288 1.153a4.514 4.514 0 01-2.556-.286 4.412 4.412 0 01-1.964-1.63 4.284 4.284 0 01-.709-2.425zM42.165 87.915h-2.808c-.131-3.367 3.53-6.962 7.275-7.171 4.54-.257 8.332 2.853 8.696 7.132h-3.104a4.454 4.454 0 00-.52-1.854 4.545 4.545 0 00-1.26-1.474 5.304 5.304 0 00-3.536-1.094c-2.55.133-4.423 1.874-4.743 4.46z" fill="#7FBB42"/><path d="M50.502 87.914h-6.484a3.12 3.12 0 011.025-1.902 3.235 3.235 0 012.035-.808 3.278 3.278 0 012.254.696 3.157 3.157 0 011.17 2.014zM43.581 71.795a1.59 1.59 0 01-.275.897c-.18.266-.437.473-.737.596a1.675 1.675 0 01-1.794-.349 1.583 1.583 0 01-.356-1.759 1.62 1.62 0 01.608-.723c.27-.177.59-.27.915-.27a1.638 1.638 0 011.168.463 1.577 1.577 0 01.471 1.145zM61.432 20.683a14.723 14.723 0 00-4.59-5.097 15.088 15.088 0 00-6.444-2.511 15.255 15.255 0 00-6.94.39c-3.89 1.132-7.188 3.685-9.215 7.132a3.812 3.812 0 00-.553 2.059v24.046c2.852-1.493 3.395-4.137 4.02-6.795a.44.44 0 01.142.024c.155.105.31.214.46.328a14.884 14.884 0 007.275 3.067c3.07.448 6.206-.036 8.987-1.388a15.35 15.35 0 005.819-4.701 14.95 14.95 0 002.848-6.845 14.464 14.464 0 00-1.809-9.71zM47.741 38.785c-5.263.19-10.67-4.146-10.767-10.542-.088-5.62 4.942-10.803 11.189-10.594a11.004 11.004 0 017.481 3.425 10.579 10.579 0 012.893 7.583c-.127 5.302-4.894 10.3-10.796 10.128z" fill="#7FBB42"/><path d="M45.264 22.028a6.418 6.418 0 013.515 1.068 6.231 6.231 0 012.316 2.805c.47 1.14.587 2.39.332 3.593a6.172 6.172 0 01-1.764 3.168 6.373 6.373 0 01-3.262 1.67 6.446 6.446 0 01-3.658-.392 6.3 6.3 0 01-2.818-2.321 6.117 6.117 0 01-1.024-3.466 6.078 6.078 0 01.502-2.361 6.178 6.178 0 011.386-1.994 6.317 6.317 0 012.058-1.321 6.416 6.416 0 012.417-.449z" fill="#7FBB42"/><path d="M97.537 19.627H82.45v26.89h14.71V35.623h-7.92l-2.701-5.045h15.175v15.939l-4.258 5.045H82.42l-4.418-5.045v-26.89l4.675-5.05h19.497l-4.637 5.05zM124.356 51.562h-13.828l-3.167-3.875V31.253l3.167-3.875h13.828l3.225 3.875v16.434l-3.225 3.875zm-1.038-19.496H111.62v14.817h11.698V32.066zM149.782 51.562h-13.827l-3.172-3.875V31.253l3.172-3.875h13.827l3.221 3.875v16.434l-3.221 3.875zm-1.042-19.496h-11.694v14.817h11.694V32.066zM174.628 51.562H161.32l-3.119-3.875V31.253l3.395-3.875h9.826l-2.425 4.679h-6.523v14.826h11.155V14.211l4.277 2.9v30.576l-3.278 3.875z" fill="#fff"/></g><defs><clipPath id="clip0"><path fill="#fff" d="M0 0h226v88H0z"/></clipPath></defs></svg>